<mxfile host="Electron" modified="2023-09-26T21:24:26.798Z" agent="Mozilla/5.0 (Windows NT 10.0; Win64; x64) AppleWebKit/537.36 (KHTML, like Gecko) draw.io/21.7.5 Chrome/114.0.5735.289 Electron/25.8.1 Safari/537.36" etag="4PZ21S-n1WnbhlBNbQXz" version="21.7.5" type="device">
  <diagram id="C5RBs43oDa-KdzZeNtuy" name="Page-1">
    <mxGraphModel dx="2109" dy="1439" grid="0" gridSize="10" guides="1" tooltips="1" connect="1" arrows="1" fold="1" page="0" pageScale="1" pageWidth="827" pageHeight="1169" math="0" shadow="0">
      <root>
        <mxCell id="WIyWlLk6GJQsqaUBKTNV-0" />
        <mxCell id="WIyWlLk6GJQsqaUBKTNV-1" parent="WIyWlLk6GJQsqaUBKTNV-0" />
        <mxCell id="TgjQ0KLX-jRUo3jWBAGA-38" style="edgeStyle=orthogonalEdgeStyle;rounded=0;orthogonalLoop=1;jettySize=auto;html=1;entryX=1;entryY=0.5;entryDx=0;entryDy=0;endArrow=none;endFill=0;startArrow=diamondThin;startFill=1;strokeWidth=1;targetPerimeterSpacing=0;endSize=12;startSize=12;" parent="WIyWlLk6GJQsqaUBKTNV-1" source="TgjQ0KLX-jRUo3jWBAGA-6" target="TgjQ0KLX-jRUo3jWBAGA-24" edge="1">
          <mxGeometry relative="1" as="geometry" />
        </mxCell>
        <mxCell id="TgjQ0KLX-jRUo3jWBAGA-60" style="edgeStyle=orthogonalEdgeStyle;rounded=0;orthogonalLoop=1;jettySize=auto;html=1;entryX=0.5;entryY=1;entryDx=0;entryDy=0;endArrow=none;endFill=0;endSize=12;startArrow=diamondThin;startFill=1;startSize=12;" parent="WIyWlLk6GJQsqaUBKTNV-1" source="TgjQ0KLX-jRUo3jWBAGA-6" target="TgjQ0KLX-jRUo3jWBAGA-19" edge="1">
          <mxGeometry relative="1" as="geometry" />
        </mxCell>
        <mxCell id="TgjQ0KLX-jRUo3jWBAGA-6" value="Vehicle" style="swimlane;fontStyle=2;align=center;verticalAlign=top;childLayout=stackLayout;horizontal=1;startSize=26;horizontalStack=0;resizeParent=1;resizeLast=0;collapsible=1;marginBottom=0;rounded=0;shadow=0;strokeWidth=1;" parent="WIyWlLk6GJQsqaUBKTNV-1" vertex="1">
          <mxGeometry x="573" y="274" width="176" height="149" as="geometry">
            <mxRectangle x="130" y="380" width="160" height="26" as="alternateBounds" />
          </mxGeometry>
        </mxCell>
        <mxCell id="TgjQ0KLX-jRUo3jWBAGA-7" value="+ registrationNumber: String&#xa;&#xa;" style="text;align=left;verticalAlign=top;spacingLeft=4;spacingRight=4;overflow=hidden;rotatable=0;points=[[0,0.5],[1,0.5]];portConstraint=eastwest;" parent="TgjQ0KLX-jRUo3jWBAGA-6" vertex="1">
          <mxGeometry y="26" width="176" height="29" as="geometry" />
        </mxCell>
        <mxCell id="OlQsfp6fuXd59RstAiqm-1" value="+ manufacturer: Manufacturer" style="text;html=1;align=left;verticalAlign=middle;resizable=0;points=[];autosize=1;strokeColor=none;fillColor=none;" vertex="1" parent="TgjQ0KLX-jRUo3jWBAGA-6">
          <mxGeometry y="55" width="176" height="26" as="geometry" />
        </mxCell>
        <mxCell id="TgjQ0KLX-jRUo3jWBAGA-9" value="" style="line;html=1;strokeWidth=1;align=left;verticalAlign=middle;spacingTop=-1;spacingLeft=3;spacingRight=3;rotatable=0;labelPosition=right;points=[];portConstraint=eastwest;" parent="TgjQ0KLX-jRUo3jWBAGA-6" vertex="1">
          <mxGeometry y="81" width="176" height="8" as="geometry" />
        </mxCell>
        <mxCell id="TgjQ0KLX-jRUo3jWBAGA-27" value="&lt;i&gt;&amp;nbsp;+ ShowCharacteristics(): void&lt;/i&gt;" style="text;html=1;align=left;verticalAlign=middle;resizable=0;points=[];autosize=1;strokeColor=none;fillColor=none;" parent="TgjQ0KLX-jRUo3jWBAGA-6" vertex="1">
          <mxGeometry y="89" width="176" height="26" as="geometry" />
        </mxCell>
        <mxCell id="TgjQ0KLX-jRUo3jWBAGA-19" value="Â Manufacturer" style="swimlane;fontStyle=0;align=center;verticalAlign=top;childLayout=stackLayout;horizontal=1;startSize=26;horizontalStack=0;resizeParent=1;resizeLast=0;collapsible=1;marginBottom=0;rounded=0;shadow=0;strokeWidth=1;" parent="WIyWlLk6GJQsqaUBKTNV-1" vertex="1">
          <mxGeometry x="575" y="-29" width="171" height="274" as="geometry">
            <mxRectangle x="580" y="27" width="160" height="26" as="alternateBounds" />
          </mxGeometry>
        </mxCell>
        <mxCell id="TgjQ0KLX-jRUo3jWBAGA-20" value="+ id: int&#xa;+ Make: String&#xa;+ year: int&#xa;+ Color: String&#xa;+ Price: double&#xa;" style="text;align=left;verticalAlign=top;spacingLeft=4;spacingRight=4;overflow=hidden;rotatable=0;points=[[0,0.5],[1,0.5]];portConstraint=eastwest;" parent="TgjQ0KLX-jRUo3jWBAGA-19" vertex="1">
          <mxGeometry y="26" width="171" height="83" as="geometry" />
        </mxCell>
        <mxCell id="TgjQ0KLX-jRUo3jWBAGA-21" value="" style="line;html=1;strokeWidth=1;align=left;verticalAlign=middle;spacingTop=-1;spacingLeft=3;spacingRight=3;rotatable=0;labelPosition=right;points=[];portConstraint=eastwest;" parent="TgjQ0KLX-jRUo3jWBAGA-19" vertex="1">
          <mxGeometry y="109" width="171" height="8" as="geometry" />
        </mxCell>
        <mxCell id="TgjQ0KLX-jRUo3jWBAGA-22" value="&amp;nbsp;+ setId()&lt;span style=&quot;background-color: initial;&quot;&gt;: void&lt;br&gt;&lt;/span&gt;&amp;nbsp;+ setMake()&lt;span style=&quot;background-color: initial;&quot;&gt;:void&lt;/span&gt;&lt;br&gt;&amp;nbsp;+ setYear()&lt;span style=&quot;background-color: initial;&quot;&gt;:void&lt;/span&gt;&lt;br&gt;&amp;nbsp;+ setColor()&lt;span style=&quot;background-color: initial;&quot;&gt;:void&lt;/span&gt;&lt;br&gt;&amp;nbsp;+ setPrice()&lt;span style=&quot;background-color: initial;&quot;&gt;:void&lt;/span&gt;&lt;br&gt;&amp;nbsp;+ getId(&lt;span style=&quot;background-color: initial;&quot;&gt;):&lt;/span&gt;&lt;br&gt;&amp;nbsp;+ getMake&lt;span style=&quot;background-color: initial;&quot;&gt;():&lt;/span&gt;&lt;br&gt;&amp;nbsp;+ getYear&lt;span style=&quot;background-color: initial;&quot;&gt;():&lt;/span&gt;&lt;br&gt;&amp;nbsp;+ getColor&lt;span style=&quot;background-color: initial;&quot;&gt;():&lt;/span&gt;&lt;br&gt;&amp;nbsp;+ getPrice&lt;span style=&quot;background-color: initial;&quot;&gt;():&lt;/span&gt;" style="text;html=1;align=left;verticalAlign=middle;resizable=0;points=[];autosize=1;strokeColor=none;fillColor=none;" parent="TgjQ0KLX-jRUo3jWBAGA-19" vertex="1">
          <mxGeometry y="117" width="171" height="156" as="geometry" />
        </mxCell>
        <object label="Engine" ID="fdsfsdfdsfsdf" dsfsDFSDFS="" id="TgjQ0KLX-jRUo3jWBAGA-24">
          <mxCell style="swimlane;fontStyle=0;align=center;verticalAlign=top;childLayout=stackLayout;horizontal=1;startSize=26;horizontalStack=0;resizeParent=1;resizeLast=0;collapsible=1;marginBottom=0;rounded=0;shadow=0;strokeWidth=1;movable=1;resizable=1;rotatable=1;deletable=1;editable=1;locked=0;connectable=1;" parent="WIyWlLk6GJQsqaUBKTNV-1" vertex="1">
            <mxGeometry x="35" y="280" width="160" height="138" as="geometry">
              <mxRectangle y="279" width="160" height="26" as="alternateBounds" />
            </mxGeometry>
          </mxCell>
        </object>
        <object label="+ id:String&#xa;+ type:String&#xa;+ horsePower: int" dfsfsdfsdf="fsdfsdfsd&#xa;sdfsdfsdf" id="TgjQ0KLX-jRUo3jWBAGA-25">
          <mxCell style="text;align=left;verticalAlign=top;spacingLeft=4;spacingRight=4;overflow=hidden;rotatable=0;points=[[0,0.5],[1,0.5]];portConstraint=eastwest;" parent="TgjQ0KLX-jRUo3jWBAGA-24" vertex="1">
            <mxGeometry y="26" width="160" height="56" as="geometry" />
          </mxCell>
        </object>
        <mxCell id="TgjQ0KLX-jRUo3jWBAGA-26" value="" style="line;html=1;strokeWidth=1;align=left;verticalAlign=middle;spacingTop=-1;spacingLeft=3;spacingRight=3;rotatable=0;labelPosition=right;points=[];portConstraint=eastwest;" parent="TgjQ0KLX-jRUo3jWBAGA-24" vertex="1">
          <mxGeometry y="82" width="160" height="8" as="geometry" />
        </mxCell>
        <mxCell id="TgjQ0KLX-jRUo3jWBAGA-63" value="&amp;nbsp;+ start(): void&lt;br&gt;&amp;nbsp;+ stop(): void" style="text;html=1;align=left;verticalAlign=middle;resizable=0;points=[];autosize=1;strokeColor=none;fillColor=none;" parent="TgjQ0KLX-jRUo3jWBAGA-24" vertex="1">
          <mxGeometry y="90" width="160" height="41" as="geometry" />
        </mxCell>
        <mxCell id="TgjQ0KLX-jRUo3jWBAGA-54" style="edgeStyle=orthogonalEdgeStyle;rounded=0;orthogonalLoop=1;jettySize=auto;html=1;entryX=0.5;entryY=1;entryDx=0;entryDy=0;endArrow=block;endFill=0;endSize=12;" parent="WIyWlLk6GJQsqaUBKTNV-1" source="TgjQ0KLX-jRUo3jWBAGA-28" target="TgjQ0KLX-jRUo3jWBAGA-6" edge="1">
          <mxGeometry relative="1" as="geometry">
            <Array as="points">
              <mxPoint x="490" y="459" />
              <mxPoint x="660" y="459" />
            </Array>
          </mxGeometry>
        </mxCell>
        <mxCell id="TgjQ0KLX-jRUo3jWBAGA-28" value=" ICEV" style="swimlane;fontStyle=0;align=center;verticalAlign=top;childLayout=stackLayout;horizontal=1;startSize=26;horizontalStack=0;resizeParent=1;resizeLast=0;collapsible=1;marginBottom=0;rounded=0;shadow=0;strokeWidth=1;" parent="WIyWlLk6GJQsqaUBKTNV-1" vertex="1">
          <mxGeometry x="396.5" y="480" width="172" height="94" as="geometry">
            <mxRectangle x="397.5" y="504" width="160" height="26" as="alternateBounds" />
          </mxGeometry>
        </mxCell>
        <mxCell id="OlQsfp6fuXd59RstAiqm-0" value="&lt;u&gt;+ engine:&amp;nbsp;CombustionEngine&lt;/u&gt;" style="text;html=1;align=left;verticalAlign=middle;resizable=0;points=[];autosize=1;strokeColor=none;fillColor=none;" vertex="1" parent="TgjQ0KLX-jRUo3jWBAGA-28">
          <mxGeometry y="26" width="172" height="26" as="geometry" />
        </mxCell>
        <mxCell id="TgjQ0KLX-jRUo3jWBAGA-30" value="" style="line;html=1;strokeWidth=1;align=left;verticalAlign=middle;spacingTop=-1;spacingLeft=3;spacingRight=3;rotatable=0;labelPosition=right;points=[];portConstraint=eastwest;" parent="TgjQ0KLX-jRUo3jWBAGA-28" vertex="1">
          <mxGeometry y="52" width="172" height="8" as="geometry" />
        </mxCell>
        <mxCell id="TgjQ0KLX-jRUo3jWBAGA-55" style="edgeStyle=orthogonalEdgeStyle;rounded=0;orthogonalLoop=1;jettySize=auto;html=1;endArrow=block;endFill=0;endSize=12;" parent="WIyWlLk6GJQsqaUBKTNV-1" source="TgjQ0KLX-jRUo3jWBAGA-31" target="TgjQ0KLX-jRUo3jWBAGA-6" edge="1">
          <mxGeometry relative="1" as="geometry">
            <Array as="points">
              <mxPoint x="660" y="470" />
              <mxPoint x="660" y="470" />
            </Array>
          </mxGeometry>
        </mxCell>
        <mxCell id="TgjQ0KLX-jRUo3jWBAGA-31" value="BEV" style="swimlane;fontStyle=0;align=center;verticalAlign=top;childLayout=stackLayout;horizontal=1;startSize=26;horizontalStack=0;resizeParent=1;resizeLast=0;collapsible=1;marginBottom=0;rounded=0;shadow=0;strokeWidth=1;" parent="WIyWlLk6GJQsqaUBKTNV-1" vertex="1">
          <mxGeometry x="581.5" y="480" width="160" height="93" as="geometry">
            <mxRectangle x="582.5" y="504" width="160" height="26" as="alternateBounds" />
          </mxGeometry>
        </mxCell>
        <mxCell id="OlQsfp6fuXd59RstAiqm-2" value="&lt;u&gt;+ engine:&amp;nbsp;ElectricEngine&lt;/u&gt;" style="text;html=1;align=left;verticalAlign=middle;resizable=0;points=[];autosize=1;strokeColor=none;fillColor=none;" vertex="1" parent="TgjQ0KLX-jRUo3jWBAGA-31">
          <mxGeometry y="26" width="160" height="26" as="geometry" />
        </mxCell>
        <mxCell id="TgjQ0KLX-jRUo3jWBAGA-33" value="" style="line;html=1;strokeWidth=1;align=left;verticalAlign=middle;spacingTop=-1;spacingLeft=3;spacingRight=3;rotatable=0;labelPosition=right;points=[];portConstraint=eastwest;" parent="TgjQ0KLX-jRUo3jWBAGA-31" vertex="1">
          <mxGeometry y="52" width="160" height="8" as="geometry" />
        </mxCell>
        <mxCell id="TgjQ0KLX-jRUo3jWBAGA-56" style="edgeStyle=orthogonalEdgeStyle;rounded=0;orthogonalLoop=1;jettySize=auto;html=1;endArrow=block;endFill=0;endSize=12;" parent="WIyWlLk6GJQsqaUBKTNV-1" source="TgjQ0KLX-jRUo3jWBAGA-34" target="TgjQ0KLX-jRUo3jWBAGA-6" edge="1">
          <mxGeometry relative="1" as="geometry">
            <Array as="points">
              <mxPoint x="850" y="459" />
              <mxPoint x="660" y="459" />
            </Array>
          </mxGeometry>
        </mxCell>
        <mxCell id="TgjQ0KLX-jRUo3jWBAGA-34" value="HybridV" style="swimlane;fontStyle=0;align=center;verticalAlign=top;childLayout=stackLayout;horizontal=1;startSize=26;horizontalStack=0;resizeParent=1;resizeLast=0;collapsible=1;marginBottom=0;rounded=0;shadow=0;strokeWidth=1;" parent="WIyWlLk6GJQsqaUBKTNV-1" vertex="1">
          <mxGeometry x="761.5" y="480" width="160" height="92" as="geometry">
            <mxRectangle x="762.5" y="504" width="160" height="26" as="alternateBounds" />
          </mxGeometry>
        </mxCell>
        <mxCell id="OlQsfp6fuXd59RstAiqm-3" value="&lt;u&gt;+ engine:&amp;nbsp;HybridEngine&lt;/u&gt;" style="text;html=1;align=left;verticalAlign=middle;resizable=0;points=[];autosize=1;strokeColor=none;fillColor=none;" vertex="1" parent="TgjQ0KLX-jRUo3jWBAGA-34">
          <mxGeometry y="26" width="160" height="26" as="geometry" />
        </mxCell>
        <mxCell id="TgjQ0KLX-jRUo3jWBAGA-36" value="" style="line;html=1;strokeWidth=1;align=left;verticalAlign=middle;spacingTop=-1;spacingLeft=3;spacingRight=3;rotatable=0;labelPosition=right;points=[];portConstraint=eastwest;" parent="TgjQ0KLX-jRUo3jWBAGA-34" vertex="1">
          <mxGeometry y="52" width="160" height="8" as="geometry" />
        </mxCell>
        <mxCell id="TgjQ0KLX-jRUo3jWBAGA-57" style="edgeStyle=orthogonalEdgeStyle;rounded=0;orthogonalLoop=1;jettySize=auto;html=1;entryX=0.5;entryY=1;entryDx=0;entryDy=0;endArrow=block;endFill=0;endSize=12;" parent="WIyWlLk6GJQsqaUBKTNV-1" source="TgjQ0KLX-jRUo3jWBAGA-42" target="TgjQ0KLX-jRUo3jWBAGA-24" edge="1">
          <mxGeometry relative="1" as="geometry">
            <Array as="points">
              <mxPoint x="-65" y="441" />
              <mxPoint x="115" y="441" />
            </Array>
          </mxGeometry>
        </mxCell>
        <mxCell id="TgjQ0KLX-jRUo3jWBAGA-42" value="CombustionEngine" style="swimlane;fontStyle=0;align=center;verticalAlign=top;childLayout=stackLayout;horizontal=1;startSize=26;horizontalStack=0;resizeParent=1;resizeLast=0;collapsible=1;marginBottom=0;rounded=0;shadow=0;strokeWidth=1;" parent="WIyWlLk6GJQsqaUBKTNV-1" vertex="1">
          <mxGeometry x="-145" y="476" width="160" height="99" as="geometry">
            <mxRectangle x="130" y="380" width="160" height="26" as="alternateBounds" />
          </mxGeometry>
        </mxCell>
        <mxCell id="TgjQ0KLX-jRUo3jWBAGA-43" value="+ cubicCapacity:int" style="text;align=left;verticalAlign=top;spacingLeft=4;spacingRight=4;overflow=hidden;rotatable=0;points=[[0,0.5],[1,0.5]];portConstraint=eastwest;" parent="TgjQ0KLX-jRUo3jWBAGA-42" vertex="1">
          <mxGeometry y="26" width="160" height="26" as="geometry" />
        </mxCell>
        <mxCell id="TgjQ0KLX-jRUo3jWBAGA-44" value="" style="line;html=1;strokeWidth=1;align=left;verticalAlign=middle;spacingTop=-1;spacingLeft=3;spacingRight=3;rotatable=0;labelPosition=right;points=[];portConstraint=eastwest;" parent="TgjQ0KLX-jRUo3jWBAGA-42" vertex="1">
          <mxGeometry y="52" width="160" height="8" as="geometry" />
        </mxCell>
        <mxCell id="TgjQ0KLX-jRUo3jWBAGA-58" style="edgeStyle=orthogonalEdgeStyle;rounded=0;orthogonalLoop=1;jettySize=auto;html=1;entryX=0.5;entryY=1;entryDx=0;entryDy=0;endArrow=block;endFill=0;endSize=12;" parent="WIyWlLk6GJQsqaUBKTNV-1" source="TgjQ0KLX-jRUo3jWBAGA-45" target="TgjQ0KLX-jRUo3jWBAGA-24" edge="1">
          <mxGeometry relative="1" as="geometry" />
        </mxCell>
        <mxCell id="TgjQ0KLX-jRUo3jWBAGA-45" value="ElectricEngine" style="swimlane;fontStyle=0;align=center;verticalAlign=top;childLayout=stackLayout;horizontal=1;startSize=26;horizontalStack=0;resizeParent=1;resizeLast=0;collapsible=1;marginBottom=0;rounded=0;shadow=0;strokeWidth=1;" parent="WIyWlLk6GJQsqaUBKTNV-1" vertex="1">
          <mxGeometry x="35" y="476" width="160" height="99" as="geometry">
            <mxRectangle x="130" y="380" width="160" height="26" as="alternateBounds" />
          </mxGeometry>
        </mxCell>
        <mxCell id="TgjQ0KLX-jRUo3jWBAGA-46" value="+ kiloWatts:int" style="text;align=left;verticalAlign=top;spacingLeft=4;spacingRight=4;overflow=hidden;rotatable=0;points=[[0,0.5],[1,0.5]];portConstraint=eastwest;" parent="TgjQ0KLX-jRUo3jWBAGA-45" vertex="1">
          <mxGeometry y="26" width="160" height="26" as="geometry" />
        </mxCell>
        <mxCell id="TgjQ0KLX-jRUo3jWBAGA-47" value="" style="line;html=1;strokeWidth=1;align=left;verticalAlign=middle;spacingTop=-1;spacingLeft=3;spacingRight=3;rotatable=0;labelPosition=right;points=[];portConstraint=eastwest;" parent="TgjQ0KLX-jRUo3jWBAGA-45" vertex="1">
          <mxGeometry y="52" width="160" height="8" as="geometry" />
        </mxCell>
        <mxCell id="TgjQ0KLX-jRUo3jWBAGA-59" style="edgeStyle=orthogonalEdgeStyle;rounded=0;orthogonalLoop=1;jettySize=auto;html=1;entryX=0.5;entryY=1;entryDx=0;entryDy=0;endArrow=block;endFill=0;endSize=12;" parent="WIyWlLk6GJQsqaUBKTNV-1" source="TgjQ0KLX-jRUo3jWBAGA-51" target="TgjQ0KLX-jRUo3jWBAGA-24" edge="1">
          <mxGeometry relative="1" as="geometry">
            <Array as="points">
              <mxPoint x="295" y="441" />
              <mxPoint x="115" y="441" />
            </Array>
          </mxGeometry>
        </mxCell>
        <mxCell id="TgjQ0KLX-jRUo3jWBAGA-51" value="HybridEngine" style="swimlane;fontStyle=0;align=center;verticalAlign=top;childLayout=stackLayout;horizontal=1;startSize=26;horizontalStack=0;resizeParent=1;resizeLast=0;collapsible=1;marginBottom=0;rounded=0;shadow=0;strokeWidth=1;" parent="WIyWlLk6GJQsqaUBKTNV-1" vertex="1">
          <mxGeometry x="215" y="476" width="160" height="100" as="geometry">
            <mxRectangle x="130" y="380" width="160" height="26" as="alternateBounds" />
          </mxGeometry>
        </mxCell>
        <mxCell id="TgjQ0KLX-jRUo3jWBAGA-52" value="+ cubicCapacity:int&#xa;+ kiloWatts:int" style="text;align=left;verticalAlign=top;spacingLeft=4;spacingRight=4;overflow=hidden;rotatable=0;points=[[0,0.5],[1,0.5]];portConstraint=eastwest;" parent="TgjQ0KLX-jRUo3jWBAGA-51" vertex="1">
          <mxGeometry y="26" width="160" height="38" as="geometry" />
        </mxCell>
        <mxCell id="TgjQ0KLX-jRUo3jWBAGA-53" value="" style="line;html=1;strokeWidth=1;align=left;verticalAlign=middle;spacingTop=-1;spacingLeft=3;spacingRight=3;rotatable=0;labelPosition=right;points=[];portConstraint=eastwest;" parent="TgjQ0KLX-jRUo3jWBAGA-51" vertex="1">
          <mxGeometry y="64" width="160" height="8" as="geometry" />
        </mxCell>
      </root>
    </mxGraphModel>
  </diagram>
</mxfile>
